<svg width="23" height="26" viewBox="0 0 23 26" fill="none" xmlns="http://www.w3.org/2000/svg">
<path d="M22.7005 4.97299C22.6948 4.93625 22.692 4.89974 22.6807 4.86626C22.6694 4.81952 22.6524 4.77953 22.6296 4.73628C22.6153 4.70628 22.5983 4.67629 22.5785 4.64955C22.553 4.61281 22.5246 4.58282 22.4933 4.55282C22.4678 4.52957 22.4422 4.50957 22.4139 4.48957C22.3799 4.46632 22.343 4.45284 22.3032 4.43958C22.2834 4.43284 22.2664 4.41633 22.2436 4.41284C22.2293 4.40959 22.2153 4.4161 22.1982 4.4161C22.1812 4.4161 22.1699 4.4061 22.1529 4.4061L5.21882 4.40633L4.70485 0.812921C4.69911 0.782925 4.68505 0.756185 4.67653 0.729679C4.66802 0.696429 4.6595 0.662945 4.64524 0.632949C4.62543 0.5897 4.60266 0.549708 4.57711 0.512969C4.5573 0.486228 4.54027 0.462976 4.51749 0.439722C4.4862 0.406471 4.45213 0.382986 4.41529 0.35973C4.38974 0.342989 4.3642 0.329735 4.33587 0.316481C4.29606 0.299739 4.25645 0.293229 4.21387 0.286485C4.19407 0.28323 4.17704 0.273232 4.15703 0.273232L0.556559 0.272766C0.249967 0.272766 0 0.566212 0 0.926184C0 1.28616 0.246976 1.5796 0.556559 1.5796H3.68844L5.74979 15.9932C4.84684 16.2532 4.19962 17.19 4.19962 18.3066V18.4198C4.24498 19.7099 5.14238 20.72 6.2412 20.72L20.0175 20.7C20.3241 20.7 20.5741 20.4065 20.5713 20.0466C20.5713 19.6866 20.3213 19.3964 20.0147 19.3964L6.23841 19.4164C5.73594 19.4164 5.32694 18.9565 5.30716 18.3931V18.3099C5.30716 17.7432 5.67337 17.2798 6.15602 17.2266L10.3469 16.7866C10.3611 16.7866 10.3752 16.7866 10.3895 16.7834L20.7814 15.6965C20.8012 15.6933 20.8182 15.6833 20.8382 15.6765C20.8808 15.6665 20.9234 15.6533 20.9602 15.6333C20.9858 15.62 21.0086 15.6033 21.0311 15.5833C21.0652 15.5566 21.0935 15.5301 21.1221 15.4966C21.1419 15.4733 21.1589 15.4498 21.1759 15.4198C21.1987 15.3831 21.2157 15.3431 21.2328 15.2999C21.2441 15.2666 21.2555 15.2366 21.2641 15.1999C21.2668 15.1831 21.2753 15.1699 21.2783 15.1499L22.7037 5.17272C22.7065 5.15597 22.7009 5.14272 22.7037 5.12598C22.7061 5.09947 22.7146 5.08273 22.7146 5.05948C22.7146 5.02948 22.7033 5.00274 22.7003 4.97275L22.7005 4.97299ZM5.6762 7.61309L5.40367 5.70963H8.243L8.51553 7.61309H5.6762ZM5.86356 8.91642H8.70289L9.02651 11.1798H6.18718L5.86356 8.91642ZM6.85164 15.8369L6.37176 12.4835H9.21109L9.64839 15.5435L6.85164 15.8369ZM12.8994 15.2035L10.7586 15.427L10.3383 12.4835H12.8994L12.8994 15.2035ZM12.8994 11.1801H10.151L9.82737 8.91677H12.8996L12.8994 11.1801ZM12.8994 7.61321H9.64281L9.37028 5.71326H12.8996L12.8994 7.61321ZM16.2272 14.8534L14.0097 15.0868V12.4835H16.565L16.2272 14.8534ZM16.7524 11.18H14.0095V8.91659H17.076L16.7524 11.18ZM14.0097 7.61303V5.70957H17.5333L17.2608 7.61303H14.0097ZM20.2562 14.4329L17.3686 14.7331L17.6894 12.483H20.5315L20.2562 14.4329ZM20.7218 11.1797H17.8768L18.2004 8.91636H21.0425L20.7218 11.1797ZM21.23 7.61279H18.3879L18.6604 5.70933H21.5026L21.23 7.61279Z" fill="white"/>
<path d="M8.77065 21.4469C7.76553 21.4469 6.94775 22.407 6.94775 23.5871C6.94775 24.7671 7.76553 25.7272 8.77065 25.7272C9.77578 25.7272 10.5936 24.7671 10.5936 23.5871C10.5936 22.407 9.77578 21.4469 8.77065 21.4469ZM8.77065 24.4272C8.37593 24.4272 8.05803 24.0505 8.05803 23.5905C8.05803 23.1271 8.37888 22.7539 8.77065 22.7539C9.16243 22.7539 9.48327 23.1306 9.48327 23.5905C9.48327 24.0505 9.1654 24.4272 8.77065 24.4272Z" fill="white"/>
<path d="M16.7123 21.4469C15.7072 21.4469 14.8894 22.407 14.8894 23.5871C14.8894 24.7671 15.7072 25.7272 16.7123 25.7272C17.7174 25.7272 18.5352 24.7671 18.5352 23.5871C18.535 22.407 17.7174 21.4469 16.7123 21.4469ZM16.7123 24.4272C16.3176 24.4272 15.9997 24.0505 15.9997 23.5905C15.9997 23.1271 16.3205 22.7539 16.7123 22.7539C17.107 22.7539 17.4249 23.1306 17.4249 23.5905C17.4249 24.0505 17.1041 24.4272 16.7123 24.4272Z" fill="white"/>
</svg>
