<svg width="22" height="22" viewBox="0 0 22 22" fill="none" xmlns="http://www.w3.org/2000/svg">
<path d="M10.9999 0C4.9254 0 -6.10352e-05 4.95088 -6.10352e-05 11.0568C-6.10352e-05 16.6 4.06275 21.1775 9.35544 21.977V13.9868H6.63379V11.0806H9.35544V9.1465C9.35544 5.94472 10.9073 4.53966 13.5549 4.53966C14.8224 4.53966 15.4939 4.63449 15.8107 4.67701V7.21369H14.0051C12.8814 7.21369 12.4887 8.28535 12.4887 9.49224V11.0806H15.7824L15.3361 13.9868H12.4887V22C17.8576 21.2686 21.9999 16.6545 21.9999 11.0568C21.9999 4.95088 17.0749 0 10.9999 0Z" fill="#8096BC"/>
</svg>
