<svg width="19" height="18" viewBox="0 0 19 18" fill="none" xmlns="http://www.w3.org/2000/svg">
<path d="M5.54037 0C2.48555 0 -6.10352e-05 2.35618 -6.10352e-05 5.25094V12.7505C-6.10352e-05 15.6449 2.48702 18 5.5426 18H13.4588C16.514 18 18.9999 15.6438 18.9999 12.7491V5.24883C18.9999 2.35479 16.5129 0 13.4573 0H5.54037ZM15.1999 2.88C15.6195 2.88 15.9599 3.20256 15.9599 3.6C15.9599 3.99744 15.6195 4.32 15.1999 4.32C14.7804 4.32 14.4399 3.99744 14.4399 3.6C14.4399 3.20256 14.7804 2.88 15.1999 2.88ZM9.49994 4.32C12.2245 4.32 14.4399 6.4188 14.4399 9C14.4399 11.5812 12.2242 13.68 9.49994 13.68C6.77534 13.68 4.55994 11.5808 4.55994 9C4.55994 6.41916 6.77534 4.32 9.49994 4.32ZM9.49994 5.76C7.61096 5.76 6.07994 7.21044 6.07994 9C6.07994 10.7896 7.61096 12.24 9.49994 12.24C11.3889 12.24 12.9199 10.7896 12.9199 9C12.9199 7.21044 11.3889 5.76 9.49994 5.76Z" fill="#8096BC"/>
</svg>
