<svg width="26" height="26" viewBox="0 0 26 26" fill="none" xmlns="http://www.w3.org/2000/svg">
<path d="M25.3519 25.9999C25.7098 25.9999 26 25.7188 26 25.3726C26 20.1757 22.7266 15.4959 17.9064 13.5969C19.6592 12.1861 20.7775 10.06 20.7775 7.68578C20.7775 3.44785 17.2158 0 12.8378 0C8.46013 0 4.89817 3.44801 4.89817 7.68578C4.89817 10.0609 6.01712 12.1874 7.77126 13.5986C3.07685 15.4649 0 20.0502 0 25.3726C0 25.719 0.290475 25.9999 0.648078 25.9999C1.00592 25.9999 1.29615 25.7188 1.29615 25.3726C1.29615 20.2561 4.42468 15.9004 9.10097 14.4652C10.2157 15.0431 11.4874 15.372 12.8378 15.372C14.1883 15.372 15.4602 15.0433 16.5747 14.465C21.3706 15.9335 24.7036 20.3884 24.7036 25.3724C24.7036 25.7193 24.9939 25.9999 25.3519 25.9999ZM6.19432 7.68628C6.19432 4.14001 9.17459 1.25533 12.8377 1.25533C16.5011 1.25533 19.4811 4.14007 19.4811 7.68628C19.4811 11.2323 16.5011 14.1172 12.8377 14.1172C9.17453 14.1172 6.19432 11.2325 6.19432 7.68628Z" fill="white"/>
</svg>
