<svg width="26" height="26" viewBox="0 0 26 26" fill="none" xmlns="http://www.w3.org/2000/svg">
<path d="M9.83719 0C4.41682 0 0 4.41683 0 9.83721C0 15.2576 4.41682 19.6744 9.83719 19.6744C12.169 19.6744 14.308 18.8524 15.9965 17.4897L24.1981 25.6913C24.6096 26.1028 25.2796 26.103 25.6913 25.6913C26.1028 25.2798 26.103 24.6098 25.6913 24.1981L17.501 16.0077C18.8621 14.3197 19.6747 12.1675 19.6747 9.8374C19.6747 4.41702 15.2579 0.000188109 9.8375 0.000188109L9.83719 0ZM9.83719 2.1081C14.1182 2.1081 17.5664 5.55621 17.5664 9.83734C17.5664 14.1185 14.1183 17.5666 9.83719 17.5666C5.55613 17.5666 2.10797 14.1185 2.10797 9.83734C2.10797 5.55602 5.55607 2.1081 9.83719 2.1081V2.1081Z" fill="white"/>
</svg>
