<svg width="24" height="20" viewBox="0 0 24 20" fill="none" xmlns="http://www.w3.org/2000/svg">
<path d="M23.9999 2.36478C23.1178 2.76913 22.1693 3.0387 21.1686 3.16609C22.1861 2.5413 22.9686 1.54478 23.3359 0.367391C22.384 0.944783 21.3296 1.3687 20.2075 1.59217C19.3115 0.609565 18.0335 0 16.6176 0C13.8976 0 11.6934 2.26087 11.6934 5.04826C11.6934 5.44261 11.7379 5.82696 11.822 6.2C7.73027 5.98739 4.10129 3.97522 1.67343 0.921305C1.24686 1.66739 1.00689 2.5413 1.00689 3.46348C1.00689 5.21609 1.87432 6.7587 3.19689 7.66783C2.38956 7.64217 1.62972 7.41 0.964444 7.03739C0.964444 7.05261 0.964444 7.07522 0.964444 7.09652C0.964444 9.54565 2.66231 11.5848 4.91282 12.0491C4.50138 12.1657 4.06683 12.2304 3.61883 12.2304C3.30069 12.2304 2.99096 12.193 2.69089 12.1374C3.3175 14.1387 5.13556 15.6017 7.28941 15.6448C5.60416 16.9965 3.48182 17.8061 1.17374 17.8061C0.774905 17.8061 0.385321 17.7826 -6.10352e-05 17.7343C2.17985 19.1626 4.76909 20 7.5483 20C16.6046 20 21.5586 12.3061 21.5586 5.63174C21.5586 5.41304 21.5519 5.19522 21.5418 4.98C22.5088 4.27391 23.3418 3.38261 23.9999 2.36478Z" fill="#8096BC"/>
</svg>
